<svg version="1.2" xmlns="http://www.w3.org/2000/svg" viewBox="0 0 289 269" width="289" height="269">
	<title>Spacehey_logo-svg</title>
	<defs>
		<clipPath clipPathUnits="userSpaceOnUse" id="cp1">
			<path d="m-9-35h1260.2v321.5h-1260.2z"/>
		</clipPath>
	</defs>
	<style>
		.s0 { fill: #1d4ed8 } 
	</style>
	<g>
		<g id="Clip-Path" clip-path="url(#cp1)">
			<g>
				<path class="s0" d="m160.1 161.2h124v106.6h-124z"/>
				<path class="s0" d="m222.1 225.2c-34.3 0-62-27.7-62-62 0-34.3 27.7-62 62-62 34.3 0 62 27.7 62 62 0 34.3-27.7 62-62 62z"/>
				<path class="s0" d="m222.1 91.2c-24.9 0-45-20.1-45-45 0-24.9 20.1-45 45-45 24.9 0 45 20.1 45 45 0 24.9-20.1 45-45 45z"/>
				<path fill-rule="evenodd" class="s0" d="m66.2 60.8h85.7v57.7c0 36-29.3 65.3-65.3 65.3h-20.4c-36 0-65.3-27.6-65.3-61.5 0-34 29.3-61.5 65.3-61.5zm-28.5 34q-1.1-1.2-3-1.2c-1.2 0-2.2 0.4-2.9 1.2-0.7 0.8-1 2-1 3.6v34.7c0 3.3 1.4 4.9 4 4.9q1.9 0 3-1.2c0.7-0.8 1.1-2 1.1-3.6v-10.6c0-3.1 0.2-5.2 0.6-6.4 0.6-1.4 1.5-2.5 2.6-3.3q1.8-1.2 3.9-1.2c2.1 0 3.5 0.7 4.3 2.1 0.7 1.4 1.1 3.3 1.1 5.9v13.5c0 3.3 1.4 4.9 4 4.9 1.2 0 2.2-0.4 2.9-1.2 0.7-0.8 1.1-2 1.1-3.6v-15.3c0-1.6-0.1-2.9-0.3-4.1-0.2-1.2-0.5-2.2-1.1-3.2-0.9-1.7-2.1-2.9-3.7-3.8-1.6-0.9-3.4-1.3-5.4-1.3-1.4 0-2.6 0.2-3.8 0.5-1.2 0.3-2.2 0.8-3.2 1.5-1 0.7-2 1.6-3 2.8v-11.9c0-1.6-0.4-2.8-1.2-3.7zm56.8 28.2c1.1-0.6 1.7-1.9 1.7-3.9 0-2.2-0.6-4.3-1.7-6.4-1.1-2.1-2.8-3.8-5-5.1-2.2-1.3-4.9-2-8-2q-3.6 0-6.6 1.2c-2 0.7-3.7 1.9-5 3.3-1.4 1.4-2.4 3.2-3.1 5.2-0.7 2-1.1 4.2-1.1 6.6 0 5 1.4 9 4.3 11.9 2.9 2.9 6.9 4.4 12 4.4q3.4 0 6-0.9c1.7-0.6 3.2-1.3 4.3-2.2 1.2-0.9 2-1.8 2.6-2.8 0.6-0.9 0.9-1.8 0.9-2.5 0-0.8-0.3-1.5-0.8-1.9-0.5-0.5-1.2-0.7-2-0.7-0.8 0-1.4 0.1-1.8 0.5-1 0.9-1.8 1.7-2.4 2.2q-1.1 0.8-2.1 1.5c-0.7 0.5-1.5 0.9-2.3 1.1-0.8 0.2-1.6 0.3-2.6 0.3-1.4 0-2.7-0.4-3.9-1.1-1.1-0.7-2.1-1.7-2.8-3.1-0.7-1.4-1.1-3-1.1-4.8h15.6c2.1 0 3.7-0.3 4.9-0.8zm12.8 19.1c-0.4 0.7-0.9 1.1-1.4 1.4-0.6 0.3-1.3 0.4-2.2 0.4-0.4 0-0.8-0.1-1.3-0.2-0.5-0.1-0.9-0.2-1.3-0.2-1.1 0-1.9 0.2-2.5 0.7-0.5 0.5-0.8 1.2-0.8 2.1 0 1.4 0.6 2.3 1.8 2.8 1.2 0.5 3 0.8 5.3 0.8 2.4 0 4.3-0.4 5.7-1.1 1.4-0.7 2.5-1.7 3.4-3.1 0.8-1.4 1.7-3.3 2.6-5.7l10.6-27.3q0.3-1.1 0.6-2.1c0.2-0.7 0.3-1.2 0.4-1.6 0-0.6-0.2-1.2-0.5-1.7-0.3-0.5-0.7-1-1.3-1.3-0.5-0.3-1.1-0.5-1.7-0.5-0.8 0-1.4 0.1-1.9 0.4-0.5 0.3-0.9 0.9-1.3 1.7-0.4 0.9-0.9 2-1.4 3.5l-6.4 18.3-6.8-19.7c-0.5-1.3-1-2.4-1.6-3.1-0.6-0.7-1.4-1.1-2.6-1.1-0.6 0-1.3 0.1-1.9 0.5-0.7 0.3-1.1 0.8-1.5 1.4-0.3 0.6-0.5 1.2-0.5 1.9 0 0.6 0.3 1.7 0.9 3.1l9.8 24.8-0.7 1.8c-0.6 1.4-1.1 2.3-1.5 3.1zm-31-28.9c1.3-1.4 2.9-2.1 4.9-2.1 2.1 0 3.8 0.6 5.1 2 1.3 1.3 2 3.4 2.2 6.1h-14.5c0.2-2.7 1-4.7 2.3-6z"/>
			</g>
		</g>
	</g>
</svg>